<svg width="128" height="48" viewBox="0 0 128 48" fill="none" xmlns="http://www.w3.org/2000/svg">
<path d="M16.9475 16.3947V14.7317H20.9345C21.7577 14.7317 22.4987 14.5901 23.1573 14.307C23.8159 14.024 24.3334 13.6112 24.7097 13.0686C25.0861 12.526 25.2743 11.8655 25.2743 11.0871C25.2743 9.9076 24.8626 8.9994 24.0394 8.36249C23.2161 7.70198 22.1811 7.37173 20.9345 7.37173H17.5826V26.8331H21.2873C22.3458 26.8331 23.2749 26.6444 24.0746 26.2669C24.8979 25.8895 25.533 25.347 25.9799 24.6393C26.4503 23.9316 26.6856 23.0706 26.6856 22.0562C26.6856 21.3013 26.5562 20.629 26.2974 20.0393C26.0387 19.4496 25.6624 18.9542 25.1684 18.5532C24.698 18.1521 24.1334 17.8573 23.4748 17.6686C22.8162 17.4563 22.087 17.3501 21.2873 17.3501H16.9475V15.687H21.2873C22.4869 15.687 23.5924 15.8168 24.6039 16.0763C25.6153 16.3357 26.4974 16.7368 27.2501 17.2793C28.0263 17.7983 28.6261 18.4706 29.0495 19.2962C29.4729 20.1219 29.6846 21.1008 29.6846 22.2331C29.6846 23.8608 29.3082 25.2172 28.5555 26.3023C27.8264 27.3639 26.8267 28.1659 25.5565 28.7085C24.3099 29.2274 22.8868 29.4869 21.2873 29.4869H14.5836V4.7179H20.9345C22.4164 4.7179 23.6983 4.942 24.7803 5.39021C25.8858 5.83841 26.7444 6.5225 27.3559 7.4425C27.9675 8.3389 28.2733 9.49479 28.2733 10.9102C28.2733 12.066 27.9675 13.0568 27.3559 13.8824C26.7444 14.7081 25.8858 15.3332 24.7803 15.7578C23.6983 16.1824 22.4164 16.3947 20.9345 16.3947H16.9475Z" fill="black"/>
<path d="M36.904 13.2101V21.3485V29.4869H34.0814V13.2101H36.904ZM41.8083 16.324C41.432 16.0409 41.0909 15.8404 40.7851 15.7224C40.4793 15.5809 40.0912 15.5101 39.6208 15.5101C38.9151 15.5101 38.3624 15.687 37.9625 16.0409C37.5626 16.3947 37.2804 16.8783 37.1157 17.4916C36.9746 18.105 36.904 18.8009 36.904 19.5793H35.6339C35.6339 18.2819 35.8573 17.1378 36.3042 16.147C36.7747 15.1327 37.3745 14.3306 38.1036 13.7409C38.8328 13.1512 39.5738 12.8563 40.3265 12.8563C40.9145 12.8563 41.4555 12.9389 41.9495 13.104C42.4669 13.2455 42.9374 13.5404 43.3608 13.9886L41.8083 16.324Z" fill="black"/>
<path d="M46.1754 6.48712C46.1754 5.94456 46.3636 5.48456 46.7399 5.10713C47.1398 4.7297 47.5985 4.54098 48.1159 4.54098C48.6569 4.54098 49.1156 4.7297 49.492 5.10713C49.8683 5.48456 50.0565 5.94456 50.0565 6.48712C50.0565 7.00609 49.8683 7.46609 49.492 7.86711C49.1156 8.24454 48.6569 8.43326 48.1159 8.43326C47.5985 8.43326 47.1398 8.24454 46.7399 7.86711C46.3636 7.46609 46.1754 7.00609 46.1754 6.48712ZM46.7046 13.2101H49.5272V21.3485V29.4869H46.7046V13.2101Z" fill="black"/>
<path d="M67.5131 1.88716H70.3358V29.4869H67.5131V1.88716ZM53.9293 21.3485C53.9293 19.5793 54.2939 18.0696 55.0231 16.8193C55.7523 15.5455 56.7284 14.5665 57.9515 13.8824C59.1747 13.1983 60.5154 12.8563 61.9738 12.8563C63.338 12.8563 64.5259 13.1983 65.5373 13.8824C66.5488 14.5665 67.3367 15.5455 67.9013 16.8193C68.4893 18.0696 68.7833 19.5793 68.7833 21.3485C68.7833 23.0941 68.4893 24.6039 67.9013 25.8777C67.3367 27.1516 66.5488 28.1305 65.5373 28.8146C64.5259 29.4987 63.338 29.8408 61.9738 29.8408C60.5154 29.8408 59.1747 29.4987 57.9515 28.8146C56.7284 28.1305 55.7523 27.1516 55.0231 25.8777C54.2939 24.6039 53.9293 23.0941 53.9293 21.3485ZM56.7872 21.3485C56.7872 22.5988 57.0342 23.6603 57.5281 24.5331C58.0456 25.4059 58.7278 26.0664 59.5745 26.5146C60.4213 26.9628 61.3387 27.1869 62.3266 27.1869C63.1499 27.1869 63.9614 26.9628 64.7611 26.5146C65.5608 26.0664 66.2195 25.4059 66.7369 24.5331C67.2544 23.6603 67.5131 22.5988 67.5131 21.3485C67.5131 20.0983 67.2544 19.0368 66.7369 18.1639C66.2195 17.2911 65.5608 16.6306 64.7611 16.1824C63.9614 15.7342 63.1499 15.5101 62.3266 15.5101C61.3387 15.5101 60.4213 15.7342 59.5745 16.1824C58.7278 16.6306 58.0456 17.2911 57.5281 18.1639C57.0342 19.0368 56.7872 20.0983 56.7872 21.3485Z" fill="black"/>
<path d="M74.369 30.5484H77.2269C77.2269 31.3269 77.4386 32.0464 77.862 32.7069C78.2854 33.391 78.8852 33.9335 79.6614 34.3346C80.4376 34.7592 81.355 34.9715 82.4135 34.9715C83.2367 34.9715 84.0482 34.771 84.848 34.3699C85.6477 33.9689 86.3063 33.332 86.8238 32.4592C87.3648 31.61 87.6353 30.5013 87.6353 29.1331V13.2101H90.4579V29.1331C90.4579 30.9966 90.0698 32.5536 89.2936 33.8038C88.5174 35.0776 87.5177 36.033 86.2946 36.6699C85.0714 37.3068 83.7777 37.6253 82.4135 37.6253C80.8375 37.6253 79.438 37.3304 78.2148 36.7407C77.0152 36.151 76.0743 35.3135 75.3922 34.2284C74.7101 33.1669 74.369 31.9402 74.369 30.5484ZM74.0515 21.3485C74.0515 19.5793 74.4161 18.0696 75.1452 16.8193C75.8744 15.5455 76.8506 14.5665 78.0737 13.8824C79.2968 13.1983 80.6376 12.8563 82.0959 12.8563C83.4602 12.8563 84.648 13.1983 85.6595 13.8824C86.6709 14.5665 87.4589 15.5455 88.0234 16.8193C88.6115 18.0696 88.9055 19.5793 88.9055 21.3485C88.9055 23.0941 88.6115 24.6039 88.0234 25.8777C87.4589 27.1516 86.6709 28.1305 85.6595 28.8146C84.648 29.4987 83.4602 29.8408 82.0959 29.8408C80.6376 29.8408 79.2968 29.4987 78.0737 28.8146C76.8506 28.1305 75.8744 27.1516 75.1452 25.8777C74.4161 24.6039 74.0515 23.0941 74.0515 21.3485ZM76.9094 21.3485C76.9094 22.5988 77.1563 23.6603 77.6503 24.5331C78.1678 25.4059 78.8499 26.0664 79.6967 26.5146C80.5435 26.9628 81.4608 27.1869 82.4488 27.1869C83.272 27.1869 84.0835 26.9628 84.8833 26.5146C85.683 26.0664 86.3416 25.4059 86.8591 24.5331C87.3766 23.6603 87.6353 22.5988 87.6353 21.3485C87.6353 20.4049 87.4824 19.5793 87.1766 18.8716C86.8709 18.1403 86.4592 17.527 85.9417 17.0316C85.4478 16.5363 84.895 16.1588 84.2835 15.8993C83.6719 15.6399 83.0603 15.5101 82.4488 15.5101C81.4608 15.5101 80.5435 15.7342 79.6967 16.1824C78.8499 16.6306 78.1678 17.2911 77.6503 18.1639C77.1563 19.0368 76.9094 20.0983 76.9094 21.3485Z" fill="black"/>
<path d="M101.865 29.8408C100.36 29.8408 99.0191 29.4869 97.843 28.7792C96.6905 28.048 95.7849 27.0454 95.1263 25.7716C94.4912 24.4977 94.1736 23.0234 94.1736 21.3485C94.1736 19.6501 94.5029 18.1639 95.1615 16.8901C95.8437 15.6163 96.7845 14.6255 97.9842 13.9178C99.2073 13.2101 100.619 12.8563 102.218 12.8563C103.818 12.8563 105.182 13.1983 106.311 13.8824C107.463 14.5429 108.346 15.4983 108.957 16.7486C109.569 17.9988 109.874 19.485 109.874 21.207C109.874 21.3721 109.863 21.549 109.839 21.7378C109.839 21.9029 109.839 22.009 109.839 22.0562H95.9731V19.6501H107.616L106.487 21.2778C106.558 21.1598 106.628 20.9829 106.699 20.747C106.77 20.4875 106.805 20.2752 106.805 20.1101C106.805 19.1429 106.605 18.3055 106.205 17.5978C105.829 16.8901 105.299 16.3357 104.617 15.9347C103.935 15.5337 103.135 15.3332 102.218 15.3332C101.136 15.3332 100.207 15.5691 99.4307 16.0409C98.6781 16.4891 98.09 17.1496 97.6666 18.0224C97.2667 18.8716 97.0551 19.9214 97.0315 21.1716C97.0315 22.4454 97.2315 23.5306 97.6313 24.427C98.0312 25.3234 98.6193 26.0075 99.3955 26.4792C100.172 26.951 101.113 27.1869 102.218 27.1869C103.324 27.1869 104.3 26.951 105.147 26.4792C105.993 25.9839 106.711 25.2408 107.299 24.25L109.592 25.7008C108.745 27.069 107.675 28.1069 106.381 28.8146C105.111 29.4987 103.606 29.8408 101.865 29.8408Z" fill="black"/>
<path d="M12.5795 35.0278H9.82302L9.82302 46.2864H12.5795V35.0278Z" fill="#6366F1"/>
<path d="M2.31737e-07 27.6487C2.39108e-07 28.2686 0.221352 28.8005 0.664056 29.2445C1.10676 29.6885 1.63717 29.9105 2.25529 29.9105C2.8734 29.9105 3.40381 29.6885 3.84652 29.2445C4.28922 28.8005 4.51057 28.2686 4.51057 27.6487C4.51057 27.0288 4.28922 26.4969 3.84652 26.0529C3.40381 25.6089 2.8734 25.3869 2.25529 25.3869C1.84599 25.3869 1.47011 25.4916 1.12764 25.7011C0.785173 25.9021 0.509527 26.1743 0.300704 26.5178C0.100235 26.8529 2.26756e-07 27.2298 2.31737e-07 27.6487Z" fill="#6366F1"/>
<path d="M1.15868e-07 17.9042C1.23239e-07 18.5241 0.221351 19.056 0.664056 19.5C1.10676 19.944 1.63717 20.166 2.25529 20.166C2.8734 20.166 3.40381 19.944 3.84651 19.5C4.28922 19.056 4.51057 18.5241 4.51057 17.9042C4.51057 17.2843 4.28922 16.7524 3.84651 16.3084C3.40381 15.8644 2.8734 15.6424 2.25529 15.6424C1.84599 15.6424 1.47011 15.7471 1.12764 15.9565C0.785173 16.1576 0.509527 16.4298 0.300704 16.7733C0.100234 17.1084 1.10888e-07 17.4853 1.15868e-07 17.9042Z" fill="#6366F1"/>
<path d="M0 8.15969C7.37095e-09 8.77958 0.221351 9.31152 0.664056 9.7555C1.10676 10.1995 1.63717 10.4215 2.25529 10.4215C2.8734 10.4215 3.40381 10.1995 3.84651 9.7555C4.28922 9.31152 4.51057 8.77958 4.51057 8.15969C4.51057 7.53979 4.28922 7.00785 3.84651 6.56387C3.40381 6.11989 2.8734 5.89791 2.25529 5.89791C1.84599 5.89791 1.47011 6.00262 1.12764 6.21204C0.785173 6.41309 0.509527 6.68534 0.300704 7.0288C0.100234 7.36388 -4.98037e-09 7.74084 0 8.15969Z" fill="#6366F1"/>
<path d="M19.8967 48C19.2786 48 18.7482 47.778 18.3055 47.334C17.8628 46.8901 17.6414 46.3581 17.6414 45.7382C17.6414 45.1183 17.8628 44.5864 18.3055 44.1424C18.7482 43.6984 19.2786 43.4764 19.8967 43.4764C20.5148 43.4764 21.0452 43.6984 21.4879 44.1424C21.9306 44.5864 22.152 45.1183 22.152 45.7382C22.152 46.1487 22.0476 46.5257 21.8388 46.8691C21.6383 47.2126 21.3668 47.489 21.0244 47.6984C20.6902 47.8995 20.3144 48 19.8967 48Z" fill="#EF4444"/>
<path d="M38.484 35.3843V38.1487H27.2577V35.3843H38.484Z" fill="#EF4444"/>
<path d="M45.8419 48C45.2238 48 44.6934 47.778 44.2507 47.334C43.808 46.8901 43.5866 46.3581 43.5866 45.7382C43.5866 45.1183 43.808 44.5864 44.2507 44.1424C44.6934 43.6984 45.2238 43.4764 45.8419 43.4764C46.46 43.4764 46.9904 43.6984 47.4331 44.1424C47.8758 44.5864 48.0972 45.1183 48.0972 45.7382C48.0972 46.1487 47.9928 46.5257 47.784 46.8691C47.5835 47.2126 47.312 47.489 46.9695 47.6984C46.6354 47.8995 46.2595 48 45.8419 48Z" fill="#EF4444"/>
<path d="M61.0599 47.8699C60.4417 47.8699 59.9113 47.6479 59.4686 47.2039C59.0259 46.76 58.8046 46.228 58.8046 45.6081C58.8046 44.9882 59.0259 44.4563 59.4686 44.0123C59.9113 43.5683 60.4417 43.3463 61.0599 43.3463C61.678 43.3463 62.2084 43.5683 62.6511 44.0123C63.0938 44.4563 63.3151 44.9882 63.3151 45.6081C63.3151 46.0186 63.2107 46.3956 63.0019 46.739C62.8014 47.0825 62.53 47.3589 62.1875 47.5683C61.8534 47.7694 61.4775 47.8699 61.0599 47.8699Z" fill="#22C55E"/>
<path d="M70.7764 47.8699C70.1583 47.8699 69.6279 47.6479 69.1852 47.2039C68.7424 46.76 68.5211 46.228 68.5211 45.6081C68.5211 44.9882 68.7424 44.4563 69.1852 44.0123C69.6279 43.5683 70.1583 43.3463 70.7764 43.3463C71.3945 43.3463 71.9249 43.5683 72.3676 44.0123C72.8103 44.4563 73.0317 44.9882 73.0317 45.6081C73.0317 46.0186 72.9273 46.3956 72.7184 46.739C72.518 47.0825 72.2465 47.3589 71.904 47.5683C71.5699 47.7694 71.194 47.8699 70.7764 47.8699Z" fill="#22C55E"/>
<path d="M126.43 19.3859H123.673V30.6445H126.43V19.3859Z" fill="#14B8A6"/>
<path d="M113.85 12.0068C113.85 12.6267 114.072 13.1586 114.514 13.6026C114.957 14.0466 115.487 14.2686 116.106 14.2686C116.724 14.2686 117.254 14.0466 117.697 13.6026C118.139 13.1586 118.361 12.6267 118.361 12.0068C118.361 11.3869 118.139 10.855 117.697 10.411C117.254 9.96702 116.724 9.74503 116.106 9.74503C115.696 9.74503 115.32 9.84974 114.978 10.0592C114.635 10.2602 114.36 10.5325 114.151 10.8759C113.95 11.211 113.85 11.588 113.85 12.0068Z" fill="#14B8A6"/>
<path d="M113.85 2.2623C113.85 2.8822 114.072 3.41414 114.514 3.85812C114.957 4.30209 115.487 4.52408 116.106 4.52408C116.724 4.52408 117.254 4.30209 117.697 3.85812C118.139 3.41414 118.361 2.8822 118.361 2.2623C118.361 1.64241 118.139 1.11047 117.697 0.666491C117.254 0.222512 116.724 0.000522623 116.106 0.000522596C115.696 0.000522578 115.32 0.105234 114.978 0.314658C114.635 0.515705 114.36 0.787958 114.151 1.13141C113.95 1.46649 113.85 1.84346 113.85 2.2623Z" fill="#14B8A6"/>
<path d="M115.203 35.384L115.203 38.1484L126.43 38.1484V35.384H115.203Z" fill="#F97316"/>
<path d="M98.9747 35.384L98.9748 38.1484H110.201V35.384H98.9747Z" fill="#F97316"/>
<path d="M91.6169 47.9997C92.235 47.9997 92.7654 47.7778 93.2081 47.3338C93.6508 46.8898 93.8722 46.3579 93.8722 45.738C93.8722 45.1181 93.6508 44.5861 93.2081 44.1422C92.7654 43.6982 92.235 43.4762 91.6169 43.4762C90.9988 43.4762 90.4684 43.6982 90.0257 44.1422C89.583 44.5861 89.3616 45.1181 89.3616 45.738C89.3616 46.1484 89.466 46.5254 89.6748 46.8689C89.8753 47.2123 90.1468 47.4887 90.4893 47.6982C90.8234 47.8992 91.1992 47.9997 91.6169 47.9997Z" fill="#F97316"/>
<path d="M125.745 4.52356C125.127 4.52356 124.596 4.30157 124.153 3.85759C123.711 3.41361 123.489 2.88168 123.489 2.26178C123.489 1.64189 123.711 1.10995 124.153 0.665969C124.596 0.22199 125.127 0 125.745 0C126.363 0 126.893 0.22199 127.336 0.665969C127.779 1.10995 128 1.64189 128 2.26178C128 2.67225 127.896 3.04922 127.687 3.39267C127.486 3.73613 127.215 4.01257 126.872 4.22199C126.538 4.42304 126.162 4.52356 125.745 4.52356Z" fill="#6366F1"/>
</svg>
